<?xml version="1.0" encoding="UTF-8" standalone="no"?>
<!-- Created with Inkscape (http://www.inkscape.org/) -->

<svg
   xmlns:dc="http://purl.org/dc/elements/1.1/"
   xmlns:cc="http://creativecommons.org/ns#"
   xmlns:rdf="http://www.w3.org/1999/02/22-rdf-syntax-ns#"
   xmlns:svg="http://www.w3.org/2000/svg"
   xmlns="http://www.w3.org/2000/svg"
   xmlns:sodipodi="http://sodipodi.sourceforge.net/DTD/sodipodi-0.dtd"
   xmlns:inkscape="http://www.inkscape.org/namespaces/inkscape"
   width="132.29167mm"
   height="132.29218mm"
   viewBox="0 0 132.29167 132.29218"
   version="1.1"
   id="svg8"
   inkscape:version="0.92.4 (5da689c313, 2019-01-14)"
   sodipodi:docname="logo-big.svg">
  <defs
     id="defs2" />
  <sodipodi:namedview
     id="base"
     pagecolor="#ffffff"
     bordercolor="#666666"
     borderopacity="1.0"
     inkscape:pageopacity="0.0"
     inkscape:pageshadow="2"
     inkscape:zoom="0.35"
     inkscape:cx="-231.42912"
     inkscape:cy="45.715243"
     inkscape:document-units="mm"
     inkscape:current-layer="layer1"
     showgrid="false"
     inkscape:window-width="1920"
     inkscape:window-height="986"
     inkscape:window-x="-11"
     inkscape:window-y="-11"
     inkscape:window-maximized="1"
     fit-margin-top="0"
     fit-margin-left="0"
     fit-margin-right="0"
     fit-margin-bottom="0" />
  <metadata
     id="metadata5">
    <rdf:RDF>
      <cc:Work
         rdf:about="">
        <dc:format>image/svg+xml</dc:format>
        <dc:type
           rdf:resource="http://purl.org/dc/dcmitype/StillImage" />
        <dc:title></dc:title>
      </cc:Work>
    </rdf:RDF>
  </metadata>
  <g
     inkscape:label="Layer 1"
     inkscape:groupmode="layer"
     id="layer1"
     transform="translate(-40.821575,-58.874738)">
    <path
       style="fill:#28a745;fill-opacity:1;stroke:none;stroke-width:0.26458332;stroke-linejoin:round;stroke-opacity:1"
       d="m 106.96741,58.874738 a 66.145835,66.145835 0 0 0 -66.145835,66.145832 66.145835,66.145835 0 0 0 66.145835,66.14635 66.145835,66.145835 0 0 0 66.14583,-66.14635 66.145835,66.145835 0 0 0 -66.14583,-66.145832 z m 21.05763,47.348012 h 7.45277 v 3.77962 h -7.45277 z m 16.60674,0 h 2.65151 v 3.67213 c -1.49287,0 -2.37683,0.0717 -2.65151,0.21497 -0.26275,0.13137 -0.39378,0.51987 -0.39378,1.16479 v 0.75241 h 3.04529 v 3.76204 h -1.71979 v 19.43706 h -7.23728 v -19.43706 h -1.48725 v -3.76204 h 1.48725 c 0,-1.56453 0.0537,-2.60972 0.16123,-3.13521 0.10748,-0.52549 0.37006,-0.99127 0.78806,-1.39733 0.42995,-0.41801 1.02727,-0.73432 1.79162,-0.9493 0.76436,-0.21497 1.95234,-0.32246 3.56465,-0.32246 z m -27.40918,2.05982 h 7.25537 v 3.74448 h 1.95285 v 3.76204 h -1.95285 v 12.71912 c 0,1.56453 0.0778,2.4362 0.23306,2.61535 0.1672,0.17914 0.84181,0.26871 2.02416,0.26871 v 3.83388 h -2.91971 c -1.64814,0 -2.82487,-0.0655 -3.52951,-0.19689 -0.70463,-0.14332 -1.3255,-0.46015 -1.86293,-0.94981 -0.53743,-0.50161 -0.87167,-1.06873 -1.00304,-1.70171 -0.13137,-0.64492 -0.1974,-2.14974 -0.1974,-4.51445 v -12.0742 h -1.55857 v -3.76204 h 1.55857 z m -61.356981,2.74092 c 1.576475,0 2.91392,0.2032 4.012673,0.60927 1.1107,0.39412 1.958824,0.91978 2.544032,1.57664 0.597149,0.65687 0.95544,1.26596 1.07487,1.82728 0.131374,0.56132 0.196887,1.43914 0.196887,2.63344 v 1.37924 h -6.413045 v -1.28984 c 0,-1.09876 -0.06603,-1.79128 -0.197405,-2.07792 -0.119428,-0.29857 -0.429601,-0.44803 -0.931209,-0.44803 -0.406061,0 -0.710607,0.13717 -0.913638,0.41186 -0.203031,0.26275 -0.304893,0.66301 -0.304893,1.20044 0,0.72853 0.04812,1.26596 0.143661,1.61231 0.107487,0.3344 0.412033,0.70446 0.913641,1.11053 0.513548,0.40606 1.558216,0.99724 3.13469,1.77353 2.101969,1.0271 3.481385,1.99448 4.13825,2.90215 0.656866,0.90767 0.98547,2.22771 0.98547,3.95945 0,1.93476 -0.250804,3.39761 -0.752409,4.38888 -0.501605,0.97932 -1.343588,1.73788 -2.525945,2.27531 -1.170413,0.52549 -2.585659,0.78807 -4.245734,0.78807 -1.839222,0 -3.415697,-0.28664 -4.729427,-0.8599 -1.301787,-0.57326 -2.197513,-1.34973 -2.687175,-2.32906 -0.489664,-0.97932 -0.734322,-2.46008 -0.734322,-4.44262 v -1.1467 h 6.413045 v 1.50482 c 0,1.2779 0.0778,2.10811 0.233061,2.49029 0.167201,0.38217 0.489662,0.57309 0.967383,0.57309 0.513548,0 0.871839,-0.12541 1.07487,-0.37621 0.20303,-0.26274 0.304374,-0.80581 0.304374,-1.62987 0,-1.13459 -0.13103,-1.84554 -0.393775,-2.13217 -0.27469,-0.28663 -1.678164,-1.13424 -4.210079,-2.54351 -2.125853,-1.1943 -3.42184,-2.27532 -3.887618,-3.2427 -0.465777,-0.97933 -0.698666,-2.13762 -0.698666,-3.47524 0,-1.89894 0.250803,-3.29627 0.752408,-4.19199 0.501608,-0.90767 1.349733,-1.60634 2.544033,-2.096 1.206243,-0.48966 2.603574,-0.73484 4.191992,-0.73484 z m 22.231717,0 c 1.122641,0 2.090023,0.30455 2.902149,0.91364 0.824066,0.59715 1.337961,1.29019 1.540991,2.07843 0.203031,0.78823 0.304374,2.12568 0.304374,4.01267 v 10.01438 c 0,2.16168 -0.131545,3.70233 -0.394292,4.62194 -0.250802,0.90767 -0.775949,1.63602 -1.576131,2.18539 -0.788236,0.53744 -1.74385,0.80616 -2.866491,0.80616 -0.895725,0 -1.725935,-0.20883 -2.490287,-0.62684 -0.764352,-0.418 -1.463016,-1.03938 -2.095998,-1.86345 v 5.44618 h -7.237282 v -27.15855 h 7.362856 l -0.125574,2.096 c 0.644922,-0.84796 1.355876,-1.48059 2.132172,-1.8986 0.776295,-0.418 1.623901,-0.62735 2.543513,-0.62735 z m 18.667077,0 v 8.36642 c -1.325671,0 -2.299198,0.17914 -2.920236,0.53743 -0.621035,0.35829 -1.002866,0.8599 -1.146183,1.50482 -0.143314,0.63298 -0.214974,2.10197 -0.214974,4.40697 v 9.38702 h -7.237801 v -23.77271 h 7.237801 l -0.286803,3.11712 c 1.050984,-2.23334 2.573716,-3.4157 4.568196,-3.54707 z m 9.440767,0 c 2.44832,0 4.29351,0.43609 5.53558,1.30793 1.24207,0.8599 1.98885,1.923 2.23966,3.18896 0.2508,1.25401 0.3762,3.84547 0.3762,7.77471 v 11.93106 h -7.0404 v -2.11408 c -0.44189,0.84795 -1.01515,1.48724 -1.71979,1.91719 -0.69269,0.41801 -1.5229,0.62684 -2.49029,0.62684 -1.26595,0 -2.43039,-0.35215 -3.493321,-1.05679 -1.050983,-0.71658 -1.57665,-2.27514 -1.57665,-4.67568 v -1.95285 c 0,-1.77951 0.281006,-2.99155 0.842328,-3.63647 0.561321,-0.64492 1.952513,-1.39733 4.173903,-2.25723 2.37666,-0.93155 3.64859,-1.55856 3.81579,-1.88102 0.1672,-0.32246 0.25063,-0.97967 0.25063,-1.97094 0,-1.24207 -0.0952,-2.04823 -0.28629,-2.41846 -0.17914,-0.38217 -0.48369,-0.57309 -0.91364,-0.57309 -0.48966,0 -0.79421,0.16123 -0.91364,0.48369 -0.11943,0.31052 -0.17931,1.12844 -0.17931,2.45412 v 2.49028 h -6.789771 v -1.59421 c 0,-1.83923 0.209349,-3.25447 0.627354,-4.24574 0.429948,-1.00321 1.2837,-1.88717 2.561597,-2.65152 1.2779,-0.76435 2.93781,-1.1467 4.98006,-1.1467 z m 21.81986,0.42995 h 7.45277 v 23.77271 h -7.45277 z m 20.06441,0 h 6.57479 l 2.36471,16.03365 1.14618,-16.03365 h 6.5748 l -2.07791,17.19792 c -0.32246,2.723 -0.59732,4.58048 -0.82424,5.57175 -0.21497,0.99127 -0.57941,1.80919 -1.09296,2.45411 -0.51355,0.64493 -1.23013,1.11684 -2.14974,1.41542 -0.90767,0.31052 -2.36437,0.4656 -4.37079,0.4656 h -4.3894 v -3.7977 c 1.12265,0 1.84537,-0.0537 2.16783,-0.16123 0.32246,-0.11943 0.48369,-0.37637 0.48369,-0.77049 0,-0.19109 -0.14946,-1.0213 -0.44803,-2.49029 z m -73.539184,3.78013 c -0.477721,0 -0.787895,0.17914 -0.931209,0.53743 -0.131373,0.3583 -0.197406,1.22434 -0.197406,2.59778 v 9.85263 c 0,1.43316 0.07166,2.32888 0.214974,2.68717 0.143317,0.35829 0.454007,0.53744 0.931728,0.53744 0.465778,0 0.752409,-0.16123 0.859896,-0.48369 0.11943,-0.33441 0.179316,-1.13442 0.179316,-2.40037 v -10.19318 c 0,-1.46899 -0.05374,-2.35909 -0.161229,-2.6696 -0.107487,-0.31052 -0.406408,-0.46561 -0.89607,-0.46561 z m 32.568554,8.68836 c -1.15847,0.84795 -1.83308,1.5589 -2.02417,2.13217 -0.17914,0.57326 -0.26871,1.39733 -0.26871,2.4722 0,1.23013 0.0778,2.02399 0.23306,2.38228 0.1672,0.35829 0.48966,0.53744 0.96738,0.53744 0.45383,0 0.74609,-0.13717 0.87747,-0.41186 0.14331,-0.28664 0.21497,-1.02727 0.21497,-2.22157 z"
       id="path815"
       inkscape:connector-curvature="0" />
  </g>
</svg>
